<mxfile host="Electron" modified="2023-05-21T12:03:33.304Z" agent="Mozilla/5.0 (Macintosh; Intel Mac OS X 10_15_7) AppleWebKit/537.36 (KHTML, like Gecko) draw.io/21.2.8 Chrome/112.0.5615.165 Electron/24.2.0 Safari/537.36" etag="BIJJezq6IEd4LiSg1Bh-" version="21.2.8" type="device">
  <diagram name="Страница 1" id="6LUX5NmWuy0DszM5YV53">
    <mxGraphModel dx="1242" dy="878" grid="1" gridSize="10" guides="1" tooltips="1" connect="1" arrows="1" fold="1" page="1" pageScale="1" pageWidth="827" pageHeight="1169" math="0" shadow="0">
      <root>
        <mxCell id="0" />
        <mxCell id="1" parent="0" />
        <mxCell id="JM4ITLlcXuF4AZOfKQWg-1" value="" style="shape=table;startSize=0;container=1;collapsible=0;childLayout=tableLayout;fontSize=13;" vertex="1" parent="1">
          <mxGeometry x="290" y="300" width="230" height="240" as="geometry" />
        </mxCell>
        <mxCell id="JM4ITLlcXuF4AZOfKQWg-2" value="" style="shape=tableRow;horizontal=0;startSize=0;swimlaneHead=0;swimlaneBody=0;strokeColor=inherit;top=0;left=0;bottom=0;right=0;collapsible=0;dropTarget=0;fillColor=none;points=[[0,0.5],[1,0.5]];portConstraint=eastwest;" vertex="1" parent="JM4ITLlcXuF4AZOfKQWg-1">
          <mxGeometry width="230" height="58" as="geometry" />
        </mxCell>
        <mxCell id="JM4ITLlcXuF4AZOfKQWg-3" value="1" style="shape=partialRectangle;html=1;whiteSpace=wrap;connectable=0;strokeColor=inherit;overflow=hidden;fillColor=none;top=0;left=0;bottom=0;right=0;pointerEvents=1;fontSize=26;" vertex="1" parent="JM4ITLlcXuF4AZOfKQWg-2">
          <mxGeometry width="58" height="58" as="geometry">
            <mxRectangle width="58" height="58" as="alternateBounds" />
          </mxGeometry>
        </mxCell>
        <mxCell id="JM4ITLlcXuF4AZOfKQWg-4" value="2" style="shape=partialRectangle;html=1;whiteSpace=wrap;connectable=0;strokeColor=inherit;overflow=hidden;fillColor=none;top=0;left=0;bottom=0;right=0;pointerEvents=1;fontSize=26;" vertex="1" parent="JM4ITLlcXuF4AZOfKQWg-2">
          <mxGeometry x="58" width="57" height="58" as="geometry">
            <mxRectangle width="57" height="58" as="alternateBounds" />
          </mxGeometry>
        </mxCell>
        <mxCell id="JM4ITLlcXuF4AZOfKQWg-5" value="3" style="shape=partialRectangle;html=1;whiteSpace=wrap;connectable=0;strokeColor=inherit;overflow=hidden;fillColor=none;top=0;left=0;bottom=0;right=0;pointerEvents=1;fontSize=26;" vertex="1" parent="JM4ITLlcXuF4AZOfKQWg-2">
          <mxGeometry x="115" width="58" height="58" as="geometry">
            <mxRectangle width="58" height="58" as="alternateBounds" />
          </mxGeometry>
        </mxCell>
        <mxCell id="JM4ITLlcXuF4AZOfKQWg-6" value="4" style="shape=partialRectangle;html=1;whiteSpace=wrap;connectable=0;strokeColor=inherit;overflow=hidden;fillColor=none;top=0;left=0;bottom=0;right=0;pointerEvents=1;fontSize=26;" vertex="1" parent="JM4ITLlcXuF4AZOfKQWg-2">
          <mxGeometry x="173" width="57" height="58" as="geometry">
            <mxRectangle width="57" height="58" as="alternateBounds" />
          </mxGeometry>
        </mxCell>
        <mxCell id="JM4ITLlcXuF4AZOfKQWg-7" value="" style="shape=tableRow;horizontal=0;startSize=0;swimlaneHead=0;swimlaneBody=0;strokeColor=inherit;top=0;left=0;bottom=0;right=0;collapsible=0;dropTarget=0;fillColor=none;points=[[0,0.5],[1,0.5]];portConstraint=eastwest;" vertex="1" parent="JM4ITLlcXuF4AZOfKQWg-1">
          <mxGeometry y="58" width="230" height="62" as="geometry" />
        </mxCell>
        <mxCell id="JM4ITLlcXuF4AZOfKQWg-8" value="5" style="shape=partialRectangle;html=1;whiteSpace=wrap;connectable=0;strokeColor=inherit;overflow=hidden;fillColor=none;top=0;left=0;bottom=0;right=0;pointerEvents=1;fontSize=26;" vertex="1" parent="JM4ITLlcXuF4AZOfKQWg-7">
          <mxGeometry width="58" height="62" as="geometry">
            <mxRectangle width="58" height="62" as="alternateBounds" />
          </mxGeometry>
        </mxCell>
        <mxCell id="JM4ITLlcXuF4AZOfKQWg-9" value="6" style="shape=partialRectangle;html=1;whiteSpace=wrap;connectable=0;strokeColor=inherit;overflow=hidden;fillColor=none;top=0;left=0;bottom=0;right=0;pointerEvents=1;fontSize=26;" vertex="1" parent="JM4ITLlcXuF4AZOfKQWg-7">
          <mxGeometry x="58" width="57" height="62" as="geometry">
            <mxRectangle width="57" height="62" as="alternateBounds" />
          </mxGeometry>
        </mxCell>
        <mxCell id="JM4ITLlcXuF4AZOfKQWg-10" value="7" style="shape=partialRectangle;html=1;whiteSpace=wrap;connectable=0;strokeColor=inherit;overflow=hidden;fillColor=none;top=0;left=0;bottom=0;right=0;pointerEvents=1;fontSize=26;" vertex="1" parent="JM4ITLlcXuF4AZOfKQWg-7">
          <mxGeometry x="115" width="58" height="62" as="geometry">
            <mxRectangle width="58" height="62" as="alternateBounds" />
          </mxGeometry>
        </mxCell>
        <mxCell id="JM4ITLlcXuF4AZOfKQWg-11" value="8" style="shape=partialRectangle;html=1;whiteSpace=wrap;connectable=0;strokeColor=inherit;overflow=hidden;fillColor=none;top=0;left=0;bottom=0;right=0;pointerEvents=1;fontSize=26;" vertex="1" parent="JM4ITLlcXuF4AZOfKQWg-7">
          <mxGeometry x="173" width="57" height="62" as="geometry">
            <mxRectangle width="57" height="62" as="alternateBounds" />
          </mxGeometry>
        </mxCell>
        <mxCell id="JM4ITLlcXuF4AZOfKQWg-12" value="" style="shape=tableRow;horizontal=0;startSize=0;swimlaneHead=0;swimlaneBody=0;strokeColor=inherit;top=0;left=0;bottom=0;right=0;collapsible=0;dropTarget=0;fillColor=none;points=[[0,0.5],[1,0.5]];portConstraint=eastwest;" vertex="1" parent="JM4ITLlcXuF4AZOfKQWg-1">
          <mxGeometry y="120" width="230" height="58" as="geometry" />
        </mxCell>
        <mxCell id="JM4ITLlcXuF4AZOfKQWg-13" value="9" style="shape=partialRectangle;html=1;whiteSpace=wrap;connectable=0;strokeColor=inherit;overflow=hidden;fillColor=none;top=0;left=0;bottom=0;right=0;pointerEvents=1;fontSize=26;" vertex="1" parent="JM4ITLlcXuF4AZOfKQWg-12">
          <mxGeometry width="58" height="58" as="geometry">
            <mxRectangle width="58" height="58" as="alternateBounds" />
          </mxGeometry>
        </mxCell>
        <mxCell id="JM4ITLlcXuF4AZOfKQWg-14" value="10" style="shape=partialRectangle;html=1;whiteSpace=wrap;connectable=0;strokeColor=inherit;overflow=hidden;fillColor=none;top=0;left=0;bottom=0;right=0;pointerEvents=1;fontSize=26;" vertex="1" parent="JM4ITLlcXuF4AZOfKQWg-12">
          <mxGeometry x="58" width="57" height="58" as="geometry">
            <mxRectangle width="57" height="58" as="alternateBounds" />
          </mxGeometry>
        </mxCell>
        <mxCell id="JM4ITLlcXuF4AZOfKQWg-15" value="11" style="shape=partialRectangle;html=1;whiteSpace=wrap;connectable=0;strokeColor=inherit;overflow=hidden;fillColor=none;top=0;left=0;bottom=0;right=0;pointerEvents=1;fontSize=26;" vertex="1" parent="JM4ITLlcXuF4AZOfKQWg-12">
          <mxGeometry x="115" width="58" height="58" as="geometry">
            <mxRectangle width="58" height="58" as="alternateBounds" />
          </mxGeometry>
        </mxCell>
        <mxCell id="JM4ITLlcXuF4AZOfKQWg-16" value="12" style="shape=partialRectangle;html=1;whiteSpace=wrap;connectable=0;strokeColor=inherit;overflow=hidden;fillColor=none;top=0;left=0;bottom=0;right=0;pointerEvents=1;fontSize=26;" vertex="1" parent="JM4ITLlcXuF4AZOfKQWg-12">
          <mxGeometry x="173" width="57" height="58" as="geometry">
            <mxRectangle width="57" height="58" as="alternateBounds" />
          </mxGeometry>
        </mxCell>
        <mxCell id="JM4ITLlcXuF4AZOfKQWg-17" value="" style="shape=tableRow;horizontal=0;startSize=0;swimlaneHead=0;swimlaneBody=0;strokeColor=inherit;top=0;left=0;bottom=0;right=0;collapsible=0;dropTarget=0;fillColor=none;points=[[0,0.5],[1,0.5]];portConstraint=eastwest;" vertex="1" parent="JM4ITLlcXuF4AZOfKQWg-1">
          <mxGeometry y="178" width="230" height="62" as="geometry" />
        </mxCell>
        <mxCell id="JM4ITLlcXuF4AZOfKQWg-18" value="13" style="shape=partialRectangle;html=1;whiteSpace=wrap;connectable=0;strokeColor=inherit;overflow=hidden;fillColor=none;top=0;left=0;bottom=0;right=0;pointerEvents=1;fontSize=26;" vertex="1" parent="JM4ITLlcXuF4AZOfKQWg-17">
          <mxGeometry width="58" height="62" as="geometry">
            <mxRectangle width="58" height="62" as="alternateBounds" />
          </mxGeometry>
        </mxCell>
        <mxCell id="JM4ITLlcXuF4AZOfKQWg-19" value="14" style="shape=partialRectangle;html=1;whiteSpace=wrap;connectable=0;strokeColor=inherit;overflow=hidden;fillColor=none;top=0;left=0;bottom=0;right=0;pointerEvents=1;fontSize=26;" vertex="1" parent="JM4ITLlcXuF4AZOfKQWg-17">
          <mxGeometry x="58" width="57" height="62" as="geometry">
            <mxRectangle width="57" height="62" as="alternateBounds" />
          </mxGeometry>
        </mxCell>
        <mxCell id="JM4ITLlcXuF4AZOfKQWg-20" value="15" style="shape=partialRectangle;html=1;whiteSpace=wrap;connectable=0;strokeColor=inherit;overflow=hidden;fillColor=none;top=0;left=0;bottom=0;right=0;pointerEvents=1;fontSize=26;" vertex="1" parent="JM4ITLlcXuF4AZOfKQWg-17">
          <mxGeometry x="115" width="58" height="62" as="geometry">
            <mxRectangle width="58" height="62" as="alternateBounds" />
          </mxGeometry>
        </mxCell>
        <mxCell id="JM4ITLlcXuF4AZOfKQWg-21" value="16" style="shape=partialRectangle;html=1;whiteSpace=wrap;connectable=0;strokeColor=inherit;overflow=hidden;fillColor=none;top=0;left=0;bottom=0;right=0;pointerEvents=1;fontSize=26;" vertex="1" parent="JM4ITLlcXuF4AZOfKQWg-17">
          <mxGeometry x="173" width="57" height="62" as="geometry">
            <mxRectangle width="57" height="62" as="alternateBounds" />
          </mxGeometry>
        </mxCell>
      </root>
    </mxGraphModel>
  </diagram>
</mxfile>
